<mxfile host="app.diagrams.net" modified="2022-06-06T20:18:01.609Z" agent="5.0 (Windows NT 10.0; Win64; x64) AppleWebKit/537.36 (KHTML, like Gecko) Chrome/100.0.4896.127 Safari/537.36" etag="6bpoGlxVGFu0dJnCjl3_" version="19.0.1" type="github">
  <diagram id="VNHnTCPg6YkhQqosSSUq" name="Page-1">
    <mxGraphModel dx="1093" dy="609" grid="1" gridSize="10" guides="1" tooltips="1" connect="1" arrows="1" fold="1" page="1" pageScale="1" pageWidth="850" pageHeight="1100" math="0" shadow="0">
      <root>
        <mxCell id="0" />
        <mxCell id="1" parent="0" />
        <mxCell id="JZIAgq0WsdpIGjdo9jfv-1" value="武器" style="ellipse;whiteSpace=wrap;html=1;" vertex="1" parent="1">
          <mxGeometry x="145" y="190" width="120" height="80" as="geometry" />
        </mxCell>
        <mxCell id="JZIAgq0WsdpIGjdo9jfv-2" value="护甲" style="ellipse;whiteSpace=wrap;html=1;" vertex="1" parent="1">
          <mxGeometry x="600" y="150" width="120" height="80" as="geometry" />
        </mxCell>
        <mxCell id="JZIAgq0WsdpIGjdo9jfv-69" style="edgeStyle=orthogonalEdgeStyle;rounded=0;orthogonalLoop=1;jettySize=auto;html=1;exitX=1;exitY=0.5;exitDx=0;exitDy=0;" edge="1" parent="1" source="JZIAgq0WsdpIGjdo9jfv-3" target="JZIAgq0WsdpIGjdo9jfv-70">
          <mxGeometry relative="1" as="geometry">
            <mxPoint x="570" y="500" as="targetPoint" />
          </mxGeometry>
        </mxCell>
        <mxCell id="JZIAgq0WsdpIGjdo9jfv-3" value="成员/敌人" style="ellipse;whiteSpace=wrap;html=1;" vertex="1" parent="1">
          <mxGeometry x="400" y="460" width="120" height="80" as="geometry" />
        </mxCell>
        <mxCell id="JZIAgq0WsdpIGjdo9jfv-8" value="攻速" style="ellipse;whiteSpace=wrap;html=1;" vertex="1" parent="1">
          <mxGeometry x="20" y="140" width="90" height="50" as="geometry" />
        </mxCell>
        <mxCell id="JZIAgq0WsdpIGjdo9jfv-9" value="" style="endArrow=classic;html=1;rounded=0;entryX=1;entryY=1;entryDx=0;entryDy=0;" edge="1" parent="1" source="JZIAgq0WsdpIGjdo9jfv-1" target="JZIAgq0WsdpIGjdo9jfv-8">
          <mxGeometry width="50" height="50" relative="1" as="geometry">
            <mxPoint x="290" y="190" as="sourcePoint" />
            <mxPoint x="110.27633883789554" y="190.5215890886741" as="targetPoint" />
          </mxGeometry>
        </mxCell>
        <mxCell id="JZIAgq0WsdpIGjdo9jfv-10" value="重量" style="ellipse;whiteSpace=wrap;html=1;" vertex="1" parent="1">
          <mxGeometry x="340" y="110" width="90" height="50" as="geometry" />
        </mxCell>
        <mxCell id="JZIAgq0WsdpIGjdo9jfv-11" value="" style="endArrow=classic;html=1;rounded=0;exitX=1;exitY=0.5;exitDx=0;exitDy=0;entryX=0;entryY=0.5;entryDx=0;entryDy=0;" edge="1" parent="1" source="JZIAgq0WsdpIGjdo9jfv-1" target="JZIAgq0WsdpIGjdo9jfv-12">
          <mxGeometry width="50" height="50" relative="1" as="geometry">
            <mxPoint x="190" y="200" as="sourcePoint" />
            <mxPoint x="300" y="230" as="targetPoint" />
          </mxGeometry>
        </mxCell>
        <mxCell id="JZIAgq0WsdpIGjdo9jfv-12" value="长度" style="ellipse;whiteSpace=wrap;html=1;" vertex="1" parent="1">
          <mxGeometry x="340" y="200" width="90" height="60" as="geometry" />
        </mxCell>
        <mxCell id="JZIAgq0WsdpIGjdo9jfv-13" value="武器类型" style="ellipse;whiteSpace=wrap;html=1;" vertex="1" parent="1">
          <mxGeometry x="100" y="110" width="90" height="50" as="geometry" />
        </mxCell>
        <mxCell id="JZIAgq0WsdpIGjdo9jfv-14" value="" style="endArrow=classic;html=1;rounded=0;entryX=0.5;entryY=1;entryDx=0;entryDy=0;" edge="1" parent="1" source="JZIAgq0WsdpIGjdo9jfv-1" target="JZIAgq0WsdpIGjdo9jfv-13">
          <mxGeometry width="50" height="50" relative="1" as="geometry">
            <mxPoint x="147.57359312880726" y="211.7157287525381" as="sourcePoint" />
            <mxPoint x="119.999319774171" y="168.5703596451258" as="targetPoint" />
          </mxGeometry>
        </mxCell>
        <mxCell id="JZIAgq0WsdpIGjdo9jfv-15" value="" style="endArrow=classic;html=1;rounded=0;exitX=1;exitY=0;exitDx=0;exitDy=0;entryX=0.222;entryY=0.908;entryDx=0;entryDy=0;entryPerimeter=0;" edge="1" parent="1" source="JZIAgq0WsdpIGjdo9jfv-1" target="JZIAgq0WsdpIGjdo9jfv-10">
          <mxGeometry width="50" height="50" relative="1" as="geometry">
            <mxPoint x="270" y="240" as="sourcePoint" />
            <mxPoint x="310" y="240" as="targetPoint" />
          </mxGeometry>
        </mxCell>
        <mxCell id="JZIAgq0WsdpIGjdo9jfv-16" value="武器伤害" style="ellipse;whiteSpace=wrap;html=1;" vertex="1" parent="1">
          <mxGeometry x="140" y="20" width="90" height="50" as="geometry" />
        </mxCell>
        <mxCell id="JZIAgq0WsdpIGjdo9jfv-25" value="" style="endArrow=classic;html=1;rounded=0;entryX=0.5;entryY=1;entryDx=0;entryDy=0;exitX=0.5;exitY=0;exitDx=0;exitDy=0;" edge="1" parent="1" source="JZIAgq0WsdpIGjdo9jfv-13" target="JZIAgq0WsdpIGjdo9jfv-16">
          <mxGeometry width="50" height="50" relative="1" as="geometry">
            <mxPoint x="180" y="110" as="sourcePoint" />
            <mxPoint x="170" y="80" as="targetPoint" />
          </mxGeometry>
        </mxCell>
        <mxCell id="JZIAgq0WsdpIGjdo9jfv-26" value="" style="endArrow=classic;html=1;rounded=0;entryX=0.5;entryY=1;entryDx=0;entryDy=0;" edge="1" parent="1" source="JZIAgq0WsdpIGjdo9jfv-10" target="JZIAgq0WsdpIGjdo9jfv-16">
          <mxGeometry width="50" height="50" relative="1" as="geometry">
            <mxPoint x="211.51471862576136" y="210.40202025355302" as="sourcePoint" />
            <mxPoint x="205" y="180" as="targetPoint" />
          </mxGeometry>
        </mxCell>
        <mxCell id="JZIAgq0WsdpIGjdo9jfv-27" value="武器体力消耗" style="ellipse;whiteSpace=wrap;html=1;" vertex="1" parent="1">
          <mxGeometry x="335" y="20" width="90" height="50" as="geometry" />
        </mxCell>
        <mxCell id="JZIAgq0WsdpIGjdo9jfv-30" value="" style="endArrow=classic;html=1;rounded=0;entryX=0.5;entryY=1;entryDx=0;entryDy=0;exitX=1;exitY=0;exitDx=0;exitDy=0;" edge="1" parent="1" source="JZIAgq0WsdpIGjdo9jfv-13" target="JZIAgq0WsdpIGjdo9jfv-27">
          <mxGeometry width="50" height="50" relative="1" as="geometry">
            <mxPoint x="190" y="120" as="sourcePoint" />
            <mxPoint x="235" y="80" as="targetPoint" />
          </mxGeometry>
        </mxCell>
        <mxCell id="JZIAgq0WsdpIGjdo9jfv-31" value="" style="endArrow=classic;html=1;rounded=0;entryX=0.5;entryY=1;entryDx=0;entryDy=0;exitX=0.5;exitY=0;exitDx=0;exitDy=0;" edge="1" parent="1" source="JZIAgq0WsdpIGjdo9jfv-10" target="JZIAgq0WsdpIGjdo9jfv-27">
          <mxGeometry width="50" height="50" relative="1" as="geometry">
            <mxPoint x="200" y="130" as="sourcePoint" />
            <mxPoint x="245" y="90" as="targetPoint" />
          </mxGeometry>
        </mxCell>
        <mxCell id="JZIAgq0WsdpIGjdo9jfv-32" value="对甲补正" style="ellipse;whiteSpace=wrap;html=1;" vertex="1" parent="1">
          <mxGeometry x="260" y="260" width="90" height="60" as="geometry" />
        </mxCell>
        <mxCell id="JZIAgq0WsdpIGjdo9jfv-33" value="" style="endArrow=classic;html=1;rounded=0;exitX=1;exitY=1;exitDx=0;exitDy=0;entryX=0;entryY=0;entryDx=0;entryDy=0;" edge="1" parent="1" source="JZIAgq0WsdpIGjdo9jfv-1" target="JZIAgq0WsdpIGjdo9jfv-32">
          <mxGeometry width="50" height="50" relative="1" as="geometry">
            <mxPoint x="140" y="360" as="sourcePoint" />
            <mxPoint x="190" y="310" as="targetPoint" />
          </mxGeometry>
        </mxCell>
        <mxCell id="JZIAgq0WsdpIGjdo9jfv-34" value="护甲类型" style="ellipse;whiteSpace=wrap;html=1;" vertex="1" parent="1">
          <mxGeometry x="450" y="160" width="90" height="60" as="geometry" />
        </mxCell>
        <mxCell id="JZIAgq0WsdpIGjdo9jfv-35" value="" style="endArrow=classic;html=1;rounded=0;exitX=0;exitY=0.5;exitDx=0;exitDy=0;entryX=1;entryY=0.5;entryDx=0;entryDy=0;" edge="1" parent="1" source="JZIAgq0WsdpIGjdo9jfv-2" target="JZIAgq0WsdpIGjdo9jfv-34">
          <mxGeometry width="50" height="50" relative="1" as="geometry">
            <mxPoint x="252.42640687119297" y="268.284271247462" as="sourcePoint" />
            <mxPoint x="283.18019484660545" y="278.78679656440363" as="targetPoint" />
          </mxGeometry>
        </mxCell>
        <mxCell id="JZIAgq0WsdpIGjdo9jfv-37" value="护甲" style="ellipse;whiteSpace=wrap;html=1;" vertex="1" parent="1">
          <mxGeometry x="520" y="80" width="90" height="60" as="geometry" />
        </mxCell>
        <mxCell id="JZIAgq0WsdpIGjdo9jfv-38" value="" style="endArrow=classic;html=1;rounded=0;exitX=0;exitY=0;exitDx=0;exitDy=0;" edge="1" parent="1" source="JZIAgq0WsdpIGjdo9jfv-2" target="JZIAgq0WsdpIGjdo9jfv-37">
          <mxGeometry width="50" height="50" relative="1" as="geometry">
            <mxPoint x="590" y="200" as="sourcePoint" />
            <mxPoint x="640" y="150" as="targetPoint" />
          </mxGeometry>
        </mxCell>
        <mxCell id="JZIAgq0WsdpIGjdo9jfv-39" value="重量" style="ellipse;whiteSpace=wrap;html=1;" vertex="1" parent="1">
          <mxGeometry x="740" y="100" width="90" height="60" as="geometry" />
        </mxCell>
        <mxCell id="JZIAgq0WsdpIGjdo9jfv-40" value="" style="endArrow=classic;html=1;rounded=0;exitX=1;exitY=0;exitDx=0;exitDy=0;" edge="1" parent="1" source="JZIAgq0WsdpIGjdo9jfv-2" target="JZIAgq0WsdpIGjdo9jfv-39">
          <mxGeometry width="50" height="50" relative="1" as="geometry">
            <mxPoint x="720" y="300" as="sourcePoint" />
            <mxPoint x="770" y="250" as="targetPoint" />
          </mxGeometry>
        </mxCell>
        <mxCell id="JZIAgq0WsdpIGjdo9jfv-42" value="生命值" style="ellipse;whiteSpace=wrap;html=1;direction=west;" vertex="1" parent="1">
          <mxGeometry x="260" y="470" width="90" height="60" as="geometry" />
        </mxCell>
        <mxCell id="JZIAgq0WsdpIGjdo9jfv-43" value="" style="endArrow=classic;html=1;rounded=0;exitX=0;exitY=0.5;exitDx=0;exitDy=0;" edge="1" parent="1" source="JZIAgq0WsdpIGjdo9jfv-3" target="JZIAgq0WsdpIGjdo9jfv-42">
          <mxGeometry width="50" height="50" relative="1" as="geometry">
            <mxPoint x="350" y="470" as="sourcePoint" />
            <mxPoint x="400" y="420" as="targetPoint" />
          </mxGeometry>
        </mxCell>
        <mxCell id="JZIAgq0WsdpIGjdo9jfv-45" value="力量" style="ellipse;whiteSpace=wrap;html=1;" vertex="1" parent="1">
          <mxGeometry x="310" y="410" width="90" height="60" as="geometry" />
        </mxCell>
        <mxCell id="JZIAgq0WsdpIGjdo9jfv-46" value="" style="endArrow=classic;html=1;rounded=0;exitX=0;exitY=0;exitDx=0;exitDy=0;" edge="1" parent="1" source="JZIAgq0WsdpIGjdo9jfv-3" target="JZIAgq0WsdpIGjdo9jfv-45">
          <mxGeometry width="50" height="50" relative="1" as="geometry">
            <mxPoint x="510" y="450" as="sourcePoint" />
            <mxPoint x="560" y="400" as="targetPoint" />
          </mxGeometry>
        </mxCell>
        <mxCell id="JZIAgq0WsdpIGjdo9jfv-47" value="体力" style="ellipse;whiteSpace=wrap;html=1;" vertex="1" parent="1">
          <mxGeometry x="415" y="380" width="90" height="60" as="geometry" />
        </mxCell>
        <mxCell id="JZIAgq0WsdpIGjdo9jfv-48" value="" style="endArrow=classic;html=1;rounded=0;exitX=0.5;exitY=0;exitDx=0;exitDy=0;entryX=0.5;entryY=1;entryDx=0;entryDy=0;" edge="1" parent="1" source="JZIAgq0WsdpIGjdo9jfv-3" target="JZIAgq0WsdpIGjdo9jfv-47">
          <mxGeometry width="50" height="50" relative="1" as="geometry">
            <mxPoint x="600" y="440" as="sourcePoint" />
            <mxPoint x="650" y="390" as="targetPoint" />
          </mxGeometry>
        </mxCell>
        <mxCell id="JZIAgq0WsdpIGjdo9jfv-51" value="前摇" style="ellipse;whiteSpace=wrap;html=1;" vertex="1" parent="1">
          <mxGeometry x="10" y="260" width="90" height="50" as="geometry" />
        </mxCell>
        <mxCell id="JZIAgq0WsdpIGjdo9jfv-52" value="后摇" style="ellipse;whiteSpace=wrap;html=1;" vertex="1" parent="1">
          <mxGeometry x="160" y="290" width="90" height="50" as="geometry" />
        </mxCell>
        <mxCell id="JZIAgq0WsdpIGjdo9jfv-53" value="" style="endArrow=classic;html=1;rounded=0;exitX=0;exitY=0.5;exitDx=0;exitDy=0;entryX=1;entryY=0.5;entryDx=0;entryDy=0;" edge="1" parent="1" source="JZIAgq0WsdpIGjdo9jfv-1" target="JZIAgq0WsdpIGjdo9jfv-51">
          <mxGeometry width="50" height="50" relative="1" as="geometry">
            <mxPoint x="100" y="430" as="sourcePoint" />
            <mxPoint x="150" y="380" as="targetPoint" />
          </mxGeometry>
        </mxCell>
        <mxCell id="JZIAgq0WsdpIGjdo9jfv-54" value="" style="endArrow=classic;html=1;rounded=0;exitX=0;exitY=1;exitDx=0;exitDy=0;" edge="1" parent="1" source="JZIAgq0WsdpIGjdo9jfv-1" target="JZIAgq0WsdpIGjdo9jfv-52">
          <mxGeometry width="50" height="50" relative="1" as="geometry">
            <mxPoint x="120" y="440" as="sourcePoint" />
            <mxPoint x="170" y="390" as="targetPoint" />
          </mxGeometry>
        </mxCell>
        <mxCell id="JZIAgq0WsdpIGjdo9jfv-56" value="对削韧抵抗" style="ellipse;whiteSpace=wrap;html=1;" vertex="1" parent="1">
          <mxGeometry x="630" y="20" width="90" height="60" as="geometry" />
        </mxCell>
        <mxCell id="JZIAgq0WsdpIGjdo9jfv-57" value="" style="endArrow=classic;html=1;rounded=0;exitX=1;exitY=0;exitDx=0;exitDy=0;entryX=0;entryY=1;entryDx=0;entryDy=0;" edge="1" parent="1" source="JZIAgq0WsdpIGjdo9jfv-37" target="JZIAgq0WsdpIGjdo9jfv-56">
          <mxGeometry width="50" height="50" relative="1" as="geometry">
            <mxPoint x="650" y="140" as="sourcePoint" />
            <mxPoint x="700" y="90" as="targetPoint" />
          </mxGeometry>
        </mxCell>
        <mxCell id="JZIAgq0WsdpIGjdo9jfv-58" value="" style="endArrow=classic;html=1;rounded=0;exitX=0.5;exitY=0;exitDx=0;exitDy=0;entryX=1;entryY=1;entryDx=0;entryDy=0;" edge="1" parent="1" source="JZIAgq0WsdpIGjdo9jfv-39" target="JZIAgq0WsdpIGjdo9jfv-56">
          <mxGeometry width="50" height="50" relative="1" as="geometry">
            <mxPoint x="750" y="100" as="sourcePoint" />
            <mxPoint x="800" y="50" as="targetPoint" />
          </mxGeometry>
        </mxCell>
        <mxCell id="JZIAgq0WsdpIGjdo9jfv-60" value="移动速度" style="ellipse;whiteSpace=wrap;html=1;" vertex="1" parent="1">
          <mxGeometry x="530" y="410" width="90" height="60" as="geometry" />
        </mxCell>
        <mxCell id="JZIAgq0WsdpIGjdo9jfv-61" value="" style="endArrow=classic;html=1;rounded=0;exitX=1;exitY=0;exitDx=0;exitDy=0;entryX=0;entryY=1;entryDx=0;entryDy=0;" edge="1" parent="1" source="JZIAgq0WsdpIGjdo9jfv-3" target="JZIAgq0WsdpIGjdo9jfv-60">
          <mxGeometry width="50" height="50" relative="1" as="geometry">
            <mxPoint x="630" y="560" as="sourcePoint" />
            <mxPoint x="680" y="510" as="targetPoint" />
          </mxGeometry>
        </mxCell>
        <mxCell id="JZIAgq0WsdpIGjdo9jfv-62" value="负重" style="ellipse;whiteSpace=wrap;html=1;" vertex="1" parent="1">
          <mxGeometry x="415" y="300" width="90" height="60" as="geometry" />
        </mxCell>
        <mxCell id="JZIAgq0WsdpIGjdo9jfv-64" value="伤害" style="ellipse;whiteSpace=wrap;html=1;" vertex="1" parent="1">
          <mxGeometry x="250" y="340" width="90" height="60" as="geometry" />
        </mxCell>
        <mxCell id="JZIAgq0WsdpIGjdo9jfv-66" value="" style="endArrow=classic;html=1;rounded=0;exitX=0;exitY=0;exitDx=0;exitDy=0;entryX=0.5;entryY=1;entryDx=0;entryDy=0;" edge="1" parent="1" source="JZIAgq0WsdpIGjdo9jfv-45" target="JZIAgq0WsdpIGjdo9jfv-64">
          <mxGeometry width="50" height="50" relative="1" as="geometry">
            <mxPoint x="190" y="500" as="sourcePoint" />
            <mxPoint x="240" y="450" as="targetPoint" />
          </mxGeometry>
        </mxCell>
        <mxCell id="JZIAgq0WsdpIGjdo9jfv-67" value="" style="endArrow=classic;html=1;rounded=0;exitX=0.5;exitY=0;exitDx=0;exitDy=0;entryX=0.5;entryY=1;entryDx=0;entryDy=0;" edge="1" parent="1" source="JZIAgq0WsdpIGjdo9jfv-47" target="JZIAgq0WsdpIGjdo9jfv-62">
          <mxGeometry width="50" height="50" relative="1" as="geometry">
            <mxPoint x="333.18019484660545" y="428.78679656440363" as="sourcePoint" />
            <mxPoint x="305" y="410" as="targetPoint" />
          </mxGeometry>
        </mxCell>
        <mxCell id="JZIAgq0WsdpIGjdo9jfv-68" value="" style="endArrow=classic;html=1;rounded=0;exitX=1;exitY=0.5;exitDx=0;exitDy=0;entryX=0.5;entryY=0;entryDx=0;entryDy=0;" edge="1" parent="1" source="JZIAgq0WsdpIGjdo9jfv-62" target="JZIAgq0WsdpIGjdo9jfv-60">
          <mxGeometry width="50" height="50" relative="1" as="geometry">
            <mxPoint x="343.18019484660545" y="438.78679656440363" as="sourcePoint" />
            <mxPoint x="315" y="420" as="targetPoint" />
          </mxGeometry>
        </mxCell>
        <mxCell id="JZIAgq0WsdpIGjdo9jfv-70" value="背包" style="ellipse;whiteSpace=wrap;html=1;" vertex="1" parent="1">
          <mxGeometry x="590" y="475" width="80" height="50" as="geometry" />
        </mxCell>
        <mxCell id="JZIAgq0WsdpIGjdo9jfv-72" value="武器" style="ellipse;whiteSpace=wrap;html=1;" vertex="1" parent="1">
          <mxGeometry x="710" y="340" width="80" height="50" as="geometry" />
        </mxCell>
        <mxCell id="JZIAgq0WsdpIGjdo9jfv-73" value="自由栏位" style="ellipse;whiteSpace=wrap;html=1;" vertex="1" parent="1">
          <mxGeometry x="710" y="410" width="80" height="50" as="geometry" />
        </mxCell>
        <mxCell id="JZIAgq0WsdpIGjdo9jfv-74" value="自由栏位" style="ellipse;whiteSpace=wrap;html=1;" vertex="1" parent="1">
          <mxGeometry x="710" y="475" width="80" height="50" as="geometry" />
        </mxCell>
        <mxCell id="JZIAgq0WsdpIGjdo9jfv-75" value="自由栏位" style="ellipse;whiteSpace=wrap;html=1;" vertex="1" parent="1">
          <mxGeometry x="710" y="540" width="80" height="50" as="geometry" />
        </mxCell>
        <mxCell id="JZIAgq0WsdpIGjdo9jfv-76" value="自由栏位" style="ellipse;whiteSpace=wrap;html=1;" vertex="1" parent="1">
          <mxGeometry x="710" y="610" width="80" height="50" as="geometry" />
        </mxCell>
        <mxCell id="JZIAgq0WsdpIGjdo9jfv-78" value="" style="endArrow=classic;html=1;rounded=0;exitX=1;exitY=0.5;exitDx=0;exitDy=0;entryX=0;entryY=0.5;entryDx=0;entryDy=0;" edge="1" parent="1" source="JZIAgq0WsdpIGjdo9jfv-70" target="JZIAgq0WsdpIGjdo9jfv-72">
          <mxGeometry width="50" height="50" relative="1" as="geometry">
            <mxPoint x="560" y="620" as="sourcePoint" />
            <mxPoint x="610" y="570" as="targetPoint" />
          </mxGeometry>
        </mxCell>
        <mxCell id="JZIAgq0WsdpIGjdo9jfv-79" value="" style="endArrow=classic;html=1;rounded=0;exitX=1;exitY=0.5;exitDx=0;exitDy=0;entryX=0;entryY=0.5;entryDx=0;entryDy=0;" edge="1" parent="1" source="JZIAgq0WsdpIGjdo9jfv-70" target="JZIAgq0WsdpIGjdo9jfv-73">
          <mxGeometry width="50" height="50" relative="1" as="geometry">
            <mxPoint x="680" y="510" as="sourcePoint" />
            <mxPoint x="720" y="375" as="targetPoint" />
          </mxGeometry>
        </mxCell>
        <mxCell id="JZIAgq0WsdpIGjdo9jfv-80" value="" style="endArrow=classic;html=1;rounded=0;exitX=1;exitY=0.5;exitDx=0;exitDy=0;" edge="1" parent="1" source="JZIAgq0WsdpIGjdo9jfv-70" target="JZIAgq0WsdpIGjdo9jfv-74">
          <mxGeometry width="50" height="50" relative="1" as="geometry">
            <mxPoint x="690" y="520" as="sourcePoint" />
            <mxPoint x="730" y="385" as="targetPoint" />
          </mxGeometry>
        </mxCell>
        <mxCell id="JZIAgq0WsdpIGjdo9jfv-81" value="" style="endArrow=classic;html=1;rounded=0;entryX=0;entryY=0.5;entryDx=0;entryDy=0;" edge="1" parent="1" target="JZIAgq0WsdpIGjdo9jfv-75">
          <mxGeometry width="50" height="50" relative="1" as="geometry">
            <mxPoint x="670" y="500" as="sourcePoint" />
            <mxPoint x="740" y="395" as="targetPoint" />
          </mxGeometry>
        </mxCell>
        <mxCell id="JZIAgq0WsdpIGjdo9jfv-82" value="" style="endArrow=classic;html=1;rounded=0;entryX=0;entryY=0.5;entryDx=0;entryDy=0;exitX=1;exitY=0.5;exitDx=0;exitDy=0;" edge="1" parent="1" source="JZIAgq0WsdpIGjdo9jfv-70" target="JZIAgq0WsdpIGjdo9jfv-76">
          <mxGeometry width="50" height="50" relative="1" as="geometry">
            <mxPoint x="670" y="510" as="sourcePoint" />
            <mxPoint x="750" y="405" as="targetPoint" />
          </mxGeometry>
        </mxCell>
        <mxCell id="JZIAgq0WsdpIGjdo9jfv-83" value="" style="endArrow=classic;html=1;rounded=0;exitX=0;exitY=0.5;exitDx=0;exitDy=0;entryX=1;entryY=0.5;entryDx=0;entryDy=0;" edge="1" parent="1" source="JZIAgq0WsdpIGjdo9jfv-72" target="JZIAgq0WsdpIGjdo9jfv-64">
          <mxGeometry width="50" height="50" relative="1" as="geometry">
            <mxPoint x="620" y="350" as="sourcePoint" />
            <mxPoint x="670" y="300" as="targetPoint" />
          </mxGeometry>
        </mxCell>
        <mxCell id="JZIAgq0WsdpIGjdo9jfv-84" value="饰品" style="ellipse;whiteSpace=wrap;html=1;" vertex="1" parent="1">
          <mxGeometry x="125" y="660" width="120" height="80" as="geometry" />
        </mxCell>
        <mxCell id="JZIAgq0WsdpIGjdo9jfv-86" value="" style="endArrow=classic;html=1;rounded=0;exitX=0.5;exitY=0;exitDx=0;exitDy=0;entryX=0.5;entryY=1;entryDx=0;entryDy=0;" edge="1" parent="1" source="JZIAgq0WsdpIGjdo9jfv-84" target="JZIAgq0WsdpIGjdo9jfv-88">
          <mxGeometry width="50" height="50" relative="1" as="geometry">
            <mxPoint x="160" y="630" as="sourcePoint" />
            <mxPoint x="190" y="600" as="targetPoint" />
          </mxGeometry>
        </mxCell>
        <mxCell id="JZIAgq0WsdpIGjdo9jfv-88" value="重量" style="ellipse;whiteSpace=wrap;html=1;" vertex="1" parent="1">
          <mxGeometry x="140" y="570" width="90" height="60" as="geometry" />
        </mxCell>
        <mxCell id="JZIAgq0WsdpIGjdo9jfv-89" value="技能" style="ellipse;whiteSpace=wrap;html=1;" vertex="1" parent="1">
          <mxGeometry x="500" y="570" width="90" height="60" as="geometry" />
        </mxCell>
        <mxCell id="JZIAgq0WsdpIGjdo9jfv-93" value="" style="endArrow=classic;html=1;rounded=0;exitX=1;exitY=1;exitDx=0;exitDy=0;entryX=0.5;entryY=0;entryDx=0;entryDy=0;" edge="1" parent="1" source="JZIAgq0WsdpIGjdo9jfv-3" target="JZIAgq0WsdpIGjdo9jfv-89">
          <mxGeometry width="50" height="50" relative="1" as="geometry">
            <mxPoint x="350" y="630" as="sourcePoint" />
            <mxPoint x="400" y="580" as="targetPoint" />
          </mxGeometry>
        </mxCell>
        <mxCell id="JZIAgq0WsdpIGjdo9jfv-95" value="武器控制力" style="ellipse;whiteSpace=wrap;html=1;" vertex="1" parent="1">
          <mxGeometry x="150" y="410" width="90" height="60" as="geometry" />
        </mxCell>
        <mxCell id="JZIAgq0WsdpIGjdo9jfv-96" value="" style="endArrow=classic;html=1;rounded=0;exitX=0;exitY=0.5;exitDx=0;exitDy=0;entryX=1;entryY=0.5;entryDx=0;entryDy=0;" edge="1" parent="1" source="JZIAgq0WsdpIGjdo9jfv-45" target="JZIAgq0WsdpIGjdo9jfv-95">
          <mxGeometry width="50" height="50" relative="1" as="geometry">
            <mxPoint x="350" y="580" as="sourcePoint" />
            <mxPoint x="390" y="540" as="targetPoint" />
          </mxGeometry>
        </mxCell>
        <mxCell id="JZIAgq0WsdpIGjdo9jfv-98" value="" style="endArrow=classic;html=1;rounded=0;exitX=0.5;exitY=0;exitDx=0;exitDy=0;entryX=0.5;entryY=1;entryDx=0;entryDy=0;" edge="1" parent="1" source="JZIAgq0WsdpIGjdo9jfv-95" target="JZIAgq0WsdpIGjdo9jfv-8">
          <mxGeometry width="50" height="50" relative="1" as="geometry">
            <mxPoint x="190" y="390" as="sourcePoint" />
            <mxPoint x="240" y="340" as="targetPoint" />
          </mxGeometry>
        </mxCell>
        <mxCell id="JZIAgq0WsdpIGjdo9jfv-99" value="可升级" style="ellipse;whiteSpace=wrap;html=1;" vertex="1" parent="1">
          <mxGeometry x="325" y="580" width="100" height="60" as="geometry" />
        </mxCell>
        <mxCell id="JZIAgq0WsdpIGjdo9jfv-100" value="" style="endArrow=classic;html=1;rounded=0;exitX=0.5;exitY=0;exitDx=0;exitDy=0;" edge="1" parent="1" source="JZIAgq0WsdpIGjdo9jfv-42" target="JZIAgq0WsdpIGjdo9jfv-99">
          <mxGeometry width="50" height="50" relative="1" as="geometry">
            <mxPoint x="290" y="590" as="sourcePoint" />
            <mxPoint x="340" y="540" as="targetPoint" />
          </mxGeometry>
        </mxCell>
        <mxCell id="JZIAgq0WsdpIGjdo9jfv-101" value="" style="endArrow=classic;html=1;rounded=0;entryX=0.5;entryY=0;entryDx=0;entryDy=0;" edge="1" parent="1" source="JZIAgq0WsdpIGjdo9jfv-45" target="JZIAgq0WsdpIGjdo9jfv-99">
          <mxGeometry width="50" height="50" relative="1" as="geometry">
            <mxPoint x="315" y="540" as="sourcePoint" />
            <mxPoint x="361.75830505051385" y="593.4380629148732" as="targetPoint" />
          </mxGeometry>
        </mxCell>
        <mxCell id="JZIAgq0WsdpIGjdo9jfv-102" value="" style="endArrow=classic;html=1;rounded=0;exitX=0;exitY=1;exitDx=0;exitDy=0;" edge="1" parent="1" source="JZIAgq0WsdpIGjdo9jfv-47" target="JZIAgq0WsdpIGjdo9jfv-99">
          <mxGeometry width="50" height="50" relative="1" as="geometry">
            <mxPoint x="369.266409168215" y="479.86486417750575" as="sourcePoint" />
            <mxPoint x="385" y="590" as="targetPoint" />
          </mxGeometry>
        </mxCell>
        <mxCell id="JZIAgq0WsdpIGjdo9jfv-104" value="可升级" style="ellipse;whiteSpace=wrap;html=1;" vertex="1" parent="1">
          <mxGeometry x="10" y="50" width="100" height="60" as="geometry" />
        </mxCell>
        <mxCell id="JZIAgq0WsdpIGjdo9jfv-105" value="" style="endArrow=classic;html=1;rounded=0;exitX=0.5;exitY=0;exitDx=0;exitDy=0;entryX=0.5;entryY=1;entryDx=0;entryDy=0;" edge="1" parent="1" source="JZIAgq0WsdpIGjdo9jfv-8" target="JZIAgq0WsdpIGjdo9jfv-104">
          <mxGeometry width="50" height="50" relative="1" as="geometry">
            <mxPoint x="390" y="120" as="sourcePoint" />
            <mxPoint x="440" y="70" as="targetPoint" />
          </mxGeometry>
        </mxCell>
        <mxCell id="JZIAgq0WsdpIGjdo9jfv-107" value="" style="endArrow=classic;html=1;rounded=0;exitX=0;exitY=0.5;exitDx=0;exitDy=0;entryX=1;entryY=0;entryDx=0;entryDy=0;" edge="1" parent="1" source="JZIAgq0WsdpIGjdo9jfv-16" target="JZIAgq0WsdpIGjdo9jfv-104">
          <mxGeometry width="50" height="50" relative="1" as="geometry">
            <mxPoint x="75" y="150" as="sourcePoint" />
            <mxPoint x="70" y="120" as="targetPoint" />
          </mxGeometry>
        </mxCell>
        <mxCell id="JZIAgq0WsdpIGjdo9jfv-108" value="可升级" style="ellipse;whiteSpace=wrap;html=1;" vertex="1" parent="1">
          <mxGeometry x="470" y="10" width="100" height="60" as="geometry" />
        </mxCell>
        <mxCell id="JZIAgq0WsdpIGjdo9jfv-109" value="" style="endArrow=classic;html=1;rounded=0;exitX=0;exitY=0;exitDx=0;exitDy=0;entryX=0.5;entryY=1;entryDx=0;entryDy=0;" edge="1" parent="1" source="JZIAgq0WsdpIGjdo9jfv-37" target="JZIAgq0WsdpIGjdo9jfv-108">
          <mxGeometry width="50" height="50" relative="1" as="geometry">
            <mxPoint x="75" y="150" as="sourcePoint" />
            <mxPoint x="70" y="120" as="targetPoint" />
          </mxGeometry>
        </mxCell>
        <mxCell id="JZIAgq0WsdpIGjdo9jfv-110" value="" style="endArrow=classic;html=1;rounded=0;exitX=0;exitY=0.5;exitDx=0;exitDy=0;entryX=1;entryY=0.5;entryDx=0;entryDy=0;" edge="1" parent="1" source="JZIAgq0WsdpIGjdo9jfv-56" target="JZIAgq0WsdpIGjdo9jfv-108">
          <mxGeometry width="50" height="50" relative="1" as="geometry">
            <mxPoint x="542.9701700301971" y="98.92774344091924" as="sourcePoint" />
            <mxPoint x="530" y="80" as="targetPoint" />
          </mxGeometry>
        </mxCell>
        <mxCell id="JZIAgq0WsdpIGjdo9jfv-113" value="武器系数" style="ellipse;whiteSpace=wrap;html=1;" vertex="1" parent="1">
          <mxGeometry x="210" y="110" width="90" height="50" as="geometry" />
        </mxCell>
        <mxCell id="JZIAgq0WsdpIGjdo9jfv-114" value="" style="endArrow=classic;html=1;rounded=0;exitX=0.5;exitY=0;exitDx=0;exitDy=0;entryX=0.393;entryY=0.98;entryDx=0;entryDy=0;entryPerimeter=0;" edge="1" parent="1" source="JZIAgq0WsdpIGjdo9jfv-1" target="JZIAgq0WsdpIGjdo9jfv-113">
          <mxGeometry width="50" height="50" relative="1" as="geometry">
            <mxPoint x="220" y="210" as="sourcePoint" />
            <mxPoint x="270" y="160" as="targetPoint" />
          </mxGeometry>
        </mxCell>
        <mxCell id="JZIAgq0WsdpIGjdo9jfv-115" value="" style="endArrow=classic;html=1;rounded=0;exitX=0;exitY=0;exitDx=0;exitDy=0;entryX=0.5;entryY=1;entryDx=0;entryDy=0;" edge="1" parent="1" source="JZIAgq0WsdpIGjdo9jfv-113" target="JZIAgq0WsdpIGjdo9jfv-16">
          <mxGeometry width="50" height="50" relative="1" as="geometry">
            <mxPoint x="270" y="70" as="sourcePoint" />
            <mxPoint x="320" y="20" as="targetPoint" />
          </mxGeometry>
        </mxCell>
        <mxCell id="JZIAgq0WsdpIGjdo9jfv-117" value="效果" style="ellipse;whiteSpace=wrap;html=1;direction=east;" vertex="1" parent="1">
          <mxGeometry x="285" y="670" width="90" height="60" as="geometry" />
        </mxCell>
        <mxCell id="JZIAgq0WsdpIGjdo9jfv-118" value="" style="endArrow=classic;html=1;rounded=0;exitX=1;exitY=0.5;exitDx=0;exitDy=0;" edge="1" parent="1" source="JZIAgq0WsdpIGjdo9jfv-84" target="JZIAgq0WsdpIGjdo9jfv-117">
          <mxGeometry width="50" height="50" relative="1" as="geometry">
            <mxPoint x="250" y="700" as="sourcePoint" />
            <mxPoint x="195" y="630" as="targetPoint" />
          </mxGeometry>
        </mxCell>
        <mxCell id="JZIAgq0WsdpIGjdo9jfv-119" value="可升级" style="ellipse;whiteSpace=wrap;html=1;" vertex="1" parent="1">
          <mxGeometry x="410" y="670" width="100" height="60" as="geometry" />
        </mxCell>
        <mxCell id="JZIAgq0WsdpIGjdo9jfv-120" value="" style="endArrow=classic;html=1;rounded=0;entryX=0;entryY=0.5;entryDx=0;entryDy=0;exitX=1;exitY=0.5;exitDx=0;exitDy=0;" edge="1" parent="1" source="JZIAgq0WsdpIGjdo9jfv-117" target="JZIAgq0WsdpIGjdo9jfv-119">
          <mxGeometry width="50" height="50" relative="1" as="geometry">
            <mxPoint x="370" y="700" as="sourcePoint" />
            <mxPoint x="390" y="810" as="targetPoint" />
          </mxGeometry>
        </mxCell>
      </root>
    </mxGraphModel>
  </diagram>
</mxfile>
